<svg xmlns="http://www.w3.org/2000/svg" height="40" viewBox="0 -960 960 960" width="40"><path d="M469.167-467.667v148.834q0 5.266 3.413 8.633 3.414 3.367 8.334 3.367 4.919 0 8.169-3.367 3.25-3.367 3.25-8.633v-148.834H642q4.308 0 7.738-3.413 3.429-3.414 3.429-8.334 0-4.919-3.429-8.169-3.43-3.25-7.738-3.25H492.333V-642q0-4.308-3.476-7.738-3.476-3.429-7.854-3.429-5.336 0-8.586 3.429-3.25 3.43-3.25 7.738v151.167H318.833q-5.266 0-8.633 3.476-3.367 3.476-3.367 7.854 0 5.336 3.367 8.586t8.633 3.25h150.334Zm11.291 334q-72.343 0-135.385-27.356-63.042-27.356-109.965-74.348-46.923-46.991-74.182-109.677-27.259-62.686-27.259-134.671 0-72.067 27.356-135.35 27.356-63.284 74.348-110.181 46.991-46.898 109.677-73.991 62.686-27.092 134.671-27.092 72.067 0 135.354 27.268 63.288 27.269 110.181 74.015 46.894 46.746 73.987 109.871 27.092 63.125 27.092 134.721 0 72.343-27.189 135.385-27.19 63.042-74.015 109.842t-109.95 74.182q-63.125 27.382-134.721 27.382Zm-.513-23.166q134.555 0 228.888-94.278 94.334-94.279 94.334-228.834t-94.108-228.888q-94.107-94.334-229.004-94.334-134.555 0-228.888 94.108-94.334 94.107-94.334 229.004 0 134.555 94.278 228.888 94.279 94.334 228.834 94.334ZM480-480Z"/></svg>