<svg xmlns="http://www.w3.org/2000/svg" height="40" viewBox="0 -960 960 960" width="40"><path d="m480-463.333 136.667 136.666q2.833 2.834 7.833 3.334t8.833-3.334q3.834-3.833 3.834-8.333t-3.834-8.333L496.667-480l136.666-136.667q2.834-2.833 3.334-7.833t-3.334-8.833q-3.833-3.834-8.333-3.834t-8.333 3.834L480-496.667 343.333-633.333q-2.833-2.834-7.833-3.334t-8.833 3.334q-3.834 3.833-3.834 8.333t3.834 8.333L463.333-480 326.667-343.333q-2.834 2.833-3.334 7.833t3.334 8.833q3.833 3.834 8.333 3.834t8.333-3.834L480-463.333Zm.281 329.666q-71.854 0-134.911-27.356-63.056-27.356-110.12-74.348-47.065-46.991-74.324-109.783t-27.259-134.565q0-71.854 27.356-135.244t74.348-110.287q46.991-46.898 109.783-73.991 62.792-27.092 134.565-27.092 71.854 0 135.248 27.268 63.394 27.269 110.287 74.015 46.894 46.746 73.987 109.871 27.092 63.125 27.092 134.898 0 71.854-27.189 134.911-27.19 63.056-74.015 110.12-46.825 47.065-109.95 74.324t-134.898 27.259Zm-.336-23.166q134.555 0 228.888-94.278 94.334-94.279 94.334-228.834t-94.278-228.888q-94.279-94.334-228.834-94.334t-228.888 94.278q-94.334 94.279-94.334 228.834t94.278 228.888q94.279 94.334 228.834 94.334ZM480-480Z"/></svg>