<svg xmlns="http://www.w3.org/2000/svg" height="40" viewBox="0 -960 960 960" width="40"><path d="M479.822-352.333q-6.155 0-10.572-2.167-4.417-2.167-8.117-6.7L367.5-454.833q-3.167-2.455-3.667-7.478-.5-5.022 3.696-9.189 3.304-3.333 7.843-2.917 4.539.417 8.295 3.417l85.166 84.334v-348.501q0-4.483 2.962-7.825 2.962-3.341 8.334-3.341 5.371 0 8.621 3.341 3.25 3.342 3.25 7.825v348.501L576.333-471q3.034-3.167 7.934-3.167t9.327 2.667q3.017 4.288 2.712 9.144-.306 4.856-2.973 7.523l-93.606 93.606q-4.56 4.56-9.155 6.727-4.594 2.167-10.75 2.167ZM268.833-213.667q-23.016 0-39.091-16.075-16.075-16.075-16.075-39.091V-351.5q0-5.317 3.378-8.658 3.379-3.342 8.75-3.342 4.538 0 7.788 3.342 3.25 3.341 3.25 8.658v82.667q0 12 10 22t22 10h422.334q12 0 22-10t10-22V-351.5q0-5.317 3.379-8.658 3.378-3.342 8.749-3.342 4.538 0 7.788 3.342 3.25 3.341 3.25 8.658v82.667q0 23.016-16.075 39.091-16.075 16.075-39.091 16.075H268.833Z"/></svg>