<svg xmlns="http://www.w3.org/2000/svg" height="40" viewBox="0 -960 960 960" width="40"><path d="M236.667-196.667H398v-208.166q0-12.067 7.967-20.034 7.966-7.966 20.033-7.966h108.833q11.109 0 19.138 7.966Q562-416.9 562-404.833v208.166h161.333v-349.666q0-8-3.5-14.5t-9.5-11.5L499-731.667Q491-738 480-738t-19 6.333L249.667-572.333q-6 5-9.5 11.5t-3.5 14.5v349.666Zm-23.167 0v-349.166q0-13.74 5.318-24.959 5.317-11.218 17.015-19.041l211.334-160.834q14.3-11.166 32.733-11.166 18.433 0 32.933 11.166l211.334 160.834q11.698 7.823 17.015 19.041 5.318 11.219 5.318 24.959v349.166q0 9.007-7.08 16.087t-16.087 7.08h-156.5q-12.066 0-20.033-7.967-7.967-7.966-7.967-20.033v-208.167H421.167V-201.5q0 12.067-8.003 20.033-8.002 7.967-19.071 7.967H236.298q-8.586 0-15.692-7.08t-7.106-16.087Zm266.5-272Z"/></svg>