<svg xmlns="http://www.w3.org/2000/svg" height="40" viewBox="0 -960 960 960" width="40"><path d="M228.833-172.833q-22.975 0-39.071-16.096-16.095-16.096-16.095-39.071v-503.167q0-22.975 16.095-39.071 16.096-16.095 39.071-16.095H470q4.433 0 7.8 3.403 3.367 3.404 3.367 7.892 0 5.371-3.367 8.621t-7.8 3.25H228.833q-12 0-22 10t-10 22V-228q0 12 10 22t22 10H470q4.433 0 7.8 3.404 3.367 3.403 3.367 7.891 0 5.372-3.367 8.622t-7.8 3.25H228.833ZM740.667-468H382.5q-5.317 0-8.658-3.379-3.342-3.378-3.342-8.583 0-4.705 3.342-7.955 3.341-3.25 8.658-3.25h358.167l-81.252-81.252q-3.248-2.748-3.748-7.945t3.833-9.053q3.5-3.583 7.884-3.166 4.384.416 8.482 3.116l90.434 90.434q7.867 8.533 7.867 19.904t-7.834 18.962l-90.092 90.093q-2.963 2.907-7.719 3.356-4.755.449-8.616-3.449-4.072-3.5-4.072-8.083t3.811-8.852L740.667-468Z"/></svg>