<svg xmlns="http://www.w3.org/2000/svg" height="40" viewBox="0 -960 960 960" width="40"><path d="M173.667-228.833v-502.334q0-22.239 16.463-38.703 16.464-16.463 38.703-16.463h502.334q22.239 0 38.703 16.463 16.463 16.464 16.463 38.703v502.334q0 22.239-16.463 38.703-16.464 16.463-38.703 16.463H228.833q-22.239 0-38.703-16.463-16.463-16.464-16.463-38.703Zm23.166-368.334h566.334v-134q0-14-9-23t-23-9H228.833q-14 0-23 9t-9 23v134ZM393.333-397H567v-177H393.333v177Zm0 200.167H567v-177H393.333v177ZM196.833-397h173.334v-177H196.833v177Zm393.334 0h173v-177h-173v177ZM228.833-196.833h141.334v-177H196.833v145q0 14 9 23t23 9Zm361.334 0h141q14 0 23-9t9-23v-145h-173v177Z"/></svg>